<svg width="32" height="32" viewBox="0 0 32 32" fill="none" xmlns="http://www.w3.org/2000/svg"><path d="M27.855 15.788a4.655 4.655 0 0 0-.583-1.25.399.399 0 0 1-.067-.329 5.601 5.601 0 0 0-.109-2.712c-.272-.967-.763-1.814-1.41-2.576-.784-.923-1.73-1.644-2.788-2.223-1.96-1.072-4.073-1.582-6.292-1.682a15.698 15.698 0 0 0-2.98.147c-1.225.18-2.41.492-3.55.975-1.23.52-2.353 1.203-3.323 2.124-.71.674-1.3 1.438-1.702 2.334-.608 1.356-.746 2.748-.288 4.179.039.119.014.203-.056.298a4.292 4.292 0 0 0-.537.941 1.93 1.93 0 0 0-.148.576c-.025.344-.034.688.002 1.031.066.62.262 1.183.727 1.624.026.025.047.055.07.082v.436c-.001.607.025 1.211.116 1.814.197 1.31.803 2.388 1.798 3.254.524.455 1.11.81 1.74 1.099.818.376 1.675.63 2.555.814 1.244.262 2.505.388 3.774.422 1.612.044 3.224.021 4.831-.142.803-.082 1.6-.2 2.383-.393.776-.191 1.524-.458 2.222-.856 1.042-.594 1.81-1.434 2.282-2.538.275-.644.45-1.318.55-2.01.105-.71.123-1.424.079-2.14-.005-.08-.001-.162-.001-.242.04-.033.073-.064.11-.09.346-.251.554-.591.64-1.006.138-.657.143-1.311-.045-1.961ZM6.549 11.682c.21-.576.526-1.09.92-1.56.546-.652 1.2-1.177 1.923-1.621 1.004-.617 2.09-1.035 3.231-1.315a13.748 13.748 0 0 1 3.963-.372c1.709.083 3.353.446 4.905 1.183.476.227.92.506 1.321.85.32.275.577.6.752.986.224.496.259 1.017.163 1.543-.207 1.14-.797 2.044-1.73 2.728-.44.324-.92.577-1.42.79-.284.122-.571.232-.855.35-.1.042-.198.09-.293.143a.576.576 0 0 0-.144.12c-.06.067-.05.168.028.212.085.048.18.085.274.107.322.073.65.06.975.035a12.528 12.528 0 0 0 2.64-.48c.69-.206 1.34-.496 1.923-.926.03-.021.062-.037.094-.053.005-.002.015.004.04.011-.018.05-.034.098-.056.144a3.7 3.7 0 0 1-.896 1.15c-.438.386-.93.687-1.454.941-.812.393-1.666.659-2.544.85-1.001.22-2.016.34-3.04.4-1.015.06-2.028.054-3.041-.018-1.386-.098-2.752-.313-4.076-.752a9.089 9.089 0 0 1-1.734-.769 5.482 5.482 0 0 1-1.064-.795c-.5-.485-.855-1.054-.99-1.744a3.949 3.949 0 0 1 .185-2.138Zm18.975 9.528c-.11.563-.373 1.055-.741 1.492a4.68 4.68 0 0 1-1.21.997c-.675.4-1.404.667-2.16.868a16.41 16.41 0 0 1-2.537.447 28.95 28.95 0 0 1-3.419.145 22.061 22.061 0 0 1-2.87-.215c-.996-.146-1.974-.37-2.908-.756-.614-.254-1.193-.57-1.708-.993-.673-.554-1.171-1.23-1.42-2.075a3.294 3.294 0 0 1-.144-.99c0-.052.01-.104.016-.164.085 0 .156-.008.226.001.325.04.65.043.976.02a3.532 3.532 0 0 1 2.31.634c.42.288.806.617 1.174.966.29.274.571.556.855.836a4.29 4.29 0 0 0 1.115.81c.47.232.966.363 1.492.353a3.272 3.272 0 0 0 1.385-.347 4.8 4.8 0 0 0 .972-.643c.104-.087.208-.174.318-.254.542-.395 1.148-.511 1.803-.409.368.058.721.173 1.078.276.338.097.678.197 1.023.268.366.075.737.073 1.104-.021.376-.097.652-.314.8-.672.085-.209.143-.428.21-.644.057-.181.102-.366.164-.545.165-.472.49-.772.98-.889l1.198-.284c.013.056.031.097.032.139.008.553-.008 1.105-.114 1.65Z" fill="#fff"/></svg>