<svg width="32" height="32" viewBox="0 0 32 32" fill="none" xmlns="http://www.w3.org/2000/svg"><path d="M16 4.296c-6.63 0-12 5.373-12 12 0 5.312 3.434 9.796 8.206 11.387.6.105.825-.255.825-.57 0-.286-.015-1.23-.015-2.234-3.015.554-3.794-.736-4.034-1.412-.136-.345-.72-1.41-1.232-1.694-.42-.225-1.02-.78-.014-.794.945-.016 1.62.87 1.846 1.23 1.08 1.814 2.804 1.305 3.494.99.105-.78.42-1.305.766-1.606-2.67-.3-5.461-1.334-5.461-5.924 0-1.306.465-2.386 1.23-3.226-.12-.3-.544-1.53.12-3.18 0 0 1.002-.313 3.296 1.235.96-.27 1.98-.407 3-.407 1.019 0 2.04.136 3 .407 2.298-1.56 3.304-1.235 3.304-1.235.66 1.653.24 2.88.12 3.181.765.84 1.23 1.905 1.23 3.225 0 4.607-2.806 5.626-5.474 5.927.434.373.809 1.093.809 2.219 0 1.606-.015 2.894-.015 3.3 0 .314.225.686.825.566C24.566 26.093 28 21.588 28 16.296c0-6.63-5.37-12-12-12Z" fill="#fff"/></svg>