<svg width="32" height="32" viewBox="0 0 32 32" fill="none" xmlns="http://www.w3.org/2000/svg"><path d="M16.002 6.568c3.072 0 3.436.012 4.65.067 1.12.05 1.729.24 2.134.396.537.209.92.458 1.323.86.402.403.651.787.86 1.324.158.405.345 1.014.396 2.135.056 1.218.067 1.582.067 4.649s-.011 3.438-.067 4.649c-.05 1.121-.24 1.732-.395 2.137a3.57 3.57 0 0 1-.861 1.323 3.57 3.57 0 0 1-1.323.861c-.405.157-1.014.345-2.136.396-1.217.056-1.581.067-4.649.067-3.067 0-3.438-.011-4.648-.067-1.122-.05-1.733-.24-2.138-.396a3.568 3.568 0 0 1-1.323-.86 3.57 3.57 0 0 1-.86-1.324c-.158-.406-.346-1.016-.396-2.137-.056-1.213-.067-1.577-.067-4.649s.011-3.434.067-4.649c.05-1.121.24-1.728.395-2.134a3.57 3.57 0 0 1 .861-1.322 3.57 3.57 0 0 1 1.323-.861c.406-.157 1.016-.345 2.138-.396 1.212-.056 1.576-.067 4.648-.067m.001-2.074c-3.124 0-3.515.013-4.742.069-1.224.055-2.061.249-2.793.535-.757.294-1.4.687-2.041 1.326a5.598 5.598 0 0 0-1.322 2.038c-.285.73-.48 1.567-.535 2.791-.056 1.227-.069 1.62-.069 4.743s.013 3.516.069 4.743c.056 1.224.25 2.06.535 2.792.29.769.742 1.465 1.326 2.042A5.65 5.65 0 0 0 8.467 26.9c.729.286 1.565.48 2.79.537 1.227.055 1.62.067 4.744.067 3.125 0 3.514-.012 4.74-.067 1.224-.057 2.061-.249 2.793-.537a5.602 5.602 0 0 0 2.037-1.325 5.654 5.654 0 0 0 1.326-2.038c.284-.73.48-1.567.534-2.791.056-1.227.069-1.62.069-4.743s-.014-3.516-.07-4.743c-.056-1.224-.25-2.06-.535-2.792a5.634 5.634 0 0 0-1.327-2.037 5.642 5.642 0 0 0-2.037-1.327c-.729-.283-1.566-.479-2.79-.534-1.224-.062-1.617-.074-4.739-.074Z" fill="#fff"/><path d="M16.002 10.092a5.907 5.907 0 0 0 0 11.813 5.908 5.908 0 0 0 5.907-5.907 5.908 5.908 0 0 0-5.907-5.906Zm0 9.74a3.833 3.833 0 0 1-3.834-3.834 3.833 3.833 0 0 1 3.834-3.834 3.833 3.833 0 0 1 3.835 3.834 3.833 3.833 0 0 1-3.835 3.834ZM22.143 11.238a1.38 1.38 0 1 0 0-2.76 1.38 1.38 0 0 0 0 2.76Z" fill="#fff"/></svg>