<svg width="32" height="32" viewBox="0 0 32 32" fill="none" xmlns="http://www.w3.org/2000/svg"><path d="M7.591 21.177c0-.36.126-.665.377-.917l2.804-2.804a1.235 1.235 0 0 1 .913-.378c.377 0 .7.144.97.43-.026.028-.11.11-.255.25-.144.14-.24.236-.29.29a2.82 2.82 0 0 0-.2.256 1.056 1.056 0 0 0-.177.344 1.43 1.43 0 0 0-.046.37c0 .36.126.666.377.918a1.25 1.25 0 0 0 .918.377c.126.001.251-.015.373-.047.125-.037.242-.096.345-.175.09-.06.176-.127.256-.2.1-.094.196-.19.29-.29.14-.142.223-.23.25-.254.297.28.445.607.445.984 0 .36-.126.664-.377.916l-2.778 2.79a1.242 1.242 0 0 1-.917.364c-.36 0-.665-.118-.917-.35l-1.982-1.97a1.223 1.223 0 0 1-.378-.9l-.001-.004Zm9.477-9.504c0-.36.126-.665.377-.917l2.777-2.79a1.235 1.235 0 0 1 .913-.378c.35 0 .656.12.917.364l1.984 1.968c.254.252.38.553.38.903 0 .36-.126.665-.38.917l-2.802 2.804a1.238 1.238 0 0 1-.916.364c-.377 0-.7-.14-.97-.418.026-.027.11-.11.255-.25a7.5 7.5 0 0 0 .29-.29c.072-.08.139-.166.2-.255.08-.103.14-.22.176-.344.032-.12.048-.245.047-.37 0-.36-.126-.662-.377-.914a1.247 1.247 0 0 0-.917-.377c-.136 0-.26.015-.37.046-.114.03-.23.09-.346.175a3.868 3.868 0 0 0-.256.2c-.054.05-.15.148-.29.29-.14.146-.222.23-.25.258-.294-.278-.442-.606-.442-.983v-.003ZM5.003 21.177c0 1.078.382 1.99 1.146 2.736l1.982 1.968c.745.75 1.658 1.12 2.736 1.12 1.087 0 2.004-.38 2.75-1.143l2.777-2.79c.75-.747 1.12-1.66 1.12-2.737 0-1.106-.392-2.046-1.183-2.818l1.186-1.185c.774.79 1.708 1.186 2.805 1.186 1.078 0 1.995-.376 2.75-1.13l2.803-2.81c.751-.754 1.128-1.671 1.128-2.748 0-1.08-.382-1.993-1.146-2.738L23.875 6.12C23.13 5.372 22.218 5 21.139 5c-1.087 0-2.004.382-2.75 1.146l-2.777 2.79c-.75.747-1.12 1.66-1.12 2.737 0 1.105.392 2.045 1.183 2.817l-1.186 1.186c-.774-.79-1.708-1.186-2.805-1.186-1.078 0-1.995.377-2.75 1.132L6.13 18.426c-.754.755-1.13 1.672-1.13 2.75l.003.001Z" fill="#fff"/></svg>