<svg width="32" height="32" viewBox="0 0 32 32" fill="none" xmlns="http://www.w3.org/2000/svg"><path d="M26.5 12.187c0-4.887-3.198-6.319-3.198-6.319-1.575-.782-4.39-1.097-7.302-1.116-2.864 0-5.65.334-7.264 1.069-.029 0-3.236 1.431-3.236 6.366v3.819c.115 4.772.878 9.478 5.288 10.652 1.69.46 3.443.653 5.193.573a10.385 10.385 0 0 0 3.99-.907l-.086-1.861c-1.26.37-2.571.545-3.885.515-2.024-.067-4.171-.22-4.496-2.71a5.324 5.324 0 0 1-.048-.698c1.485.332 2.996.533 4.515.602a25.552 25.552 0 0 0 4.468-.267c2.863-.335 5.278-2.072 5.584-3.656.323-2.005.482-4.032.477-6.062Zm-3.77 6.29H20.38v-5.726c0-1.213-.506-1.824-1.527-1.824s-1.69.726-1.69 2.167v3.14h-2.329v-3.197c0-1.441-.563-2.167-1.69-2.167-1.125 0-1.526.611-1.526 1.823v5.728h-2.3v-5.9c-.04-1.038.299-2.056.954-2.863a3.236 3.236 0 0 1 2.51-1.07 3.026 3.026 0 0 1 2.711 1.375l.582.955.583-.955a3.025 3.025 0 0 1 2.71-1.374 3.236 3.236 0 0 1 2.51 1.069c.656.807.995 1.825.955 2.864l-.105 5.956Z" fill="#fff"/></svg>