<svg width="32" height="32" viewBox="0 0 32 32" fill="none" xmlns="http://www.w3.org/2000/svg">
<path opacity="0.8" d="M26.8817 5.00092C22.0929 5.00092 18.2033 8.81349 18.2033 13.518V16.1673C18.2033 14.9701 19.1878 14.002 20.4025 14.002C21.6171 14.002 22.6017 14.9701 22.6017 16.1673V17.271C22.6017 18.4682 23.5862 19.4363 24.8008 19.4363C26.0155 19.4363 27 18.4682 27 17.271V5.00917C26.967 5.00092 26.9248 5.00092 26.8817 5.00092Z" fill="white"/>
<path d="M5 5.00092V16.8631C7.35226 16.8631 9.27918 15.0544 9.4066 12.77V10.7404C9.4066 10.6808 9.4066 10.6304 9.41485 10.5791C9.5001 9.4671 10.4507 8.5834 11.6058 8.5834C12.8204 8.5834 13.805 9.55144 13.805 10.7487V19.2062C13.805 20.4034 14.7895 21.3632 16.0041 21.3632C17.2188 21.3632 18.2033 20.3951 18.2033 19.2062V13.5171C18.2033 8.81258 22.0837 5 26.8817 5L5 5.00092Z" fill="white"/>
<path opacity="0.8" d="M5 16.8713V24.6065C5 25.8037 5.98454 26.7717 7.19918 26.7717C8.41381 26.7717 9.39835 25.8037 9.39835 24.6065V12.7791C9.27093 15.0636 7.35226 16.8713 5 16.8713Z" fill="white"/>
</svg>
