<svg width="32" height="32" viewBox="0 0 32 32" fill="none" xmlns="http://www.w3.org/2000/svg"><path d="M19.271 8.574v5.144l1.796 1.13a.443.443 0 0 0 .198 0L29 9.635c0-.617-.573-1.06-.9-1.06h-8.829Z" fill="#fff"/><path d="m19.271 15.636 1.642 1.126c.23.17.507 0 .507 0-.277.17 7.58-5.048 7.58-5.048v9.45c0 1.03-.658 1.46-1.4 1.46h-8.329v-6.988Zm-8.488-2.371c-.56 0-1.003.263-1.333.787-.334.524-.496 1.22-.496 2.086 0 .875.162 1.568.496 2.076.322.51.757.767 1.29.767.552 0 .985-.249 1.31-.743.32-.496.481-1.184.481-2.064 0-.92-.159-1.63-.469-2.14-.311-.514-.739-.77-1.281-.77h.002Z" fill="#fff"/><path d="M3 5.965v20.118l15.303 3.206V3L3 5.965ZM13.241 19.42c-.648.85-1.49 1.278-2.53 1.278-1.012 0-1.84-.413-2.479-1.238-.636-.823-.954-1.899-.954-3.225 0-1.399.32-2.532.97-3.395.648-.866 1.51-1.298 2.576-1.298 1.01 0 1.828.41 2.45 1.238.624.828.935 1.918.935 3.269.004 1.4-.322 2.52-.967 3.37Z" fill="#fff"/></svg>