<svg xmlns="http://www.w3.org/2000/svg" viewBox="0 0 32 32"><path d="M16.56 4C10 4 6.71 8.7 6.71 12.61c0 2.37.9 4.48 2.82 5.27a.47.47 0 0 0 .69-.34l.28-1.11a.67.67 0 0 0-.2-.77A4 4 0 0 1 9.4 13a6.53 6.53 0 0 1 6.79-6.6c3.7 0 5.74 2.26 5.74 5.28 0 4-1.76 7.33-4.37 7.33a2.13 2.13 0 0 1-2.18-2.66c.41-1.75 1.22-3.63 1.22-4.89a1.85 1.85 0 0 0-1.86-2.07c-1.47 0-2.66 1.53-2.66 3.57a5.31 5.31 0 0 0 .44 2.18l-1.77 7.51a15.45 15.45 0 0 0 0 5.24.18.18 0 0 0 .33.08 14.71 14.71 0 0 0 2.49-4.51c.17-.61 1-3.79 1-3.79a4 4 0 0 0 3.37 1.72c4.43 0 7.44-4 7.44-9.45C25.29 7.81 21.83 4 16.56 4z" fill="#fff"/></svg>