<svg width="32" height="32" viewBox="0 0 32 32" fill="none" xmlns="http://www.w3.org/2000/svg"><path opacity=".9" fill-rule="evenodd" clip-rule="evenodd" d="M21.805 8.837a7.818 7.818 0 0 1 0 11.282 8.59 8.59 0 0 1-.327.302L16 25.447l-5.478-5.026a8.53 8.53 0 0 1-.328-.302 7.82 7.82 0 0 1 0-11.282c3.206-3.116 8.405-3.116 11.611 0Z" fill="#fff"/><g opacity=".8"><path d="M10 13.447a6 6 0 0 1 6 6v6h-6a6 6 0 0 1 0-12Z" fill="#fff"/><mask id="a" style="mask-type:luminance" maskUnits="userSpaceOnUse" x="4" y="13" width="12" height="13"><path d="M10 13.447a6 6 0 0 1 6 6v6h-6a6 6 0 0 1 0-12Z" fill="#0DB4E2"/></mask><g mask="url(#a)"><path fill-rule="evenodd" clip-rule="evenodd" d="M21.805 8.836a7.819 7.819 0 0 1 0 11.283 8.573 8.573 0 0 1-.327.301L16 25.447l-5.478-5.027a8.513 8.513 0 0 1-.328-.302 7.82 7.82 0 0 1 0-11.282c3.206-3.115 8.405-3.115 11.611 0Z" fill="#fff"/></g></g><g opacity=".8"><path d="M16 25.447v-6l.003-.17A6 6 0 1 1 22 25.447h-6Z" fill="#fff"/><mask id="b" style="mask-type:luminance" maskUnits="userSpaceOnUse" x="16" y="13" width="12" height="13"><path d="M16 25.447v-6l.003-.17A6 6 0 1 1 22 25.447h-6Z" fill="#0DB4E2"/></mask><g mask="url(#b)"><path fill-rule="evenodd" clip-rule="evenodd" d="M21.805 8.836a7.819 7.819 0 0 1 0 11.283 8.655 8.655 0 0 1-.327.301L16 25.447l-5.478-5.027a8.594 8.594 0 0 1-.328-.302 7.82 7.82 0 0 1 0-11.282c3.206-3.116 8.405-3.116 11.611 0Z" fill="#fff"/></g></g></svg>