<svg xmlns="http://www.w3.org/2000/svg" width="32" height="32" fill="none"><path fill="#fff" d="M15.983 4.003a12 12 0 0 0-11.96 11.034l6.431 2.658a3.4 3.4 0 0 1 1.913-.59h.19l2.86-4.147V12.9a4.52 4.52 0 0 1 2.795-4.182 4.528 4.528 0 0 1 6.17 3.301 4.5 4.5 0 0 1-.259 2.615 4.52 4.52 0 0 1-4.182 2.792h-.103l-4.079 2.91v.162a3.4 3.4 0 0 1-3.061 3.383 3.396 3.396 0 0 1-3.668-2.715l-4.6-1.903a12 12 0 0 0 9.327 8.53c2.195.413 4.46.206 6.543-.6a11.99 11.99 0 0 0 7.625-10.078A11.99 11.99 0 0 0 22.298 5.8a12 12 0 0 0-6.32-1.8z"/><path fill="#fff" d="m11.543 22.213-1.474-.607a2.56 2.56 0 0 0 2.385 1.445 2.55 2.55 0 1 0-.99-4.932l1.524.628a1.88 1.88 0 0 1 1.01 2.456 1.876 1.876 0 0 1-2.455 1.01M17.693 12.91a2.267 2.267 0 1 1 2.266 2.266 2.258 2.258 0 0 1-2.105-1.4 2.3 2.3 0 0 1-.174-.87zm5.263 0a3.016 3.016 0 1 0-6.03.001 3.016 3.016 0 0 0 6.03 0"/></svg>